<svg width="395" height="127" viewBox="0 0 395 127" fill="none" xmlns="http://www.w3.org/2000/svg">
<path d="M107.816 58.2183C108.339 60.7525 108.115 63.2115 107.909 65.7706C107.798 67.0361 107.798 67.0361 107.816 68.4614C106.511 70.1217 105.731 70.9283 103.633 71.3424C103.018 71.3424 102.404 71.3424 101.77 71.3424C101.426 71.3459 101.082 71.3494 100.728 71.353C99.5788 71.3615 98.4305 71.3517 97.2814 71.3419C96.4562 71.3442 95.6311 71.3476 94.8059 71.352C92.5671 71.3605 90.3285 71.353 88.0897 71.3421C85.7464 71.3329 83.4031 71.3367 81.0597 71.3387C77.1246 71.34 73.1895 71.3311 69.2544 71.3158C64.7053 71.2984 60.1565 71.2964 55.6074 71.303C51.2307 71.309 46.8541 71.3047 42.4774 71.2954C40.615 71.2916 38.7527 71.2913 36.8904 71.2939C34.6972 71.2963 32.5042 71.2896 30.311 71.2759C29.5062 71.2723 28.7015 71.2718 27.8967 71.2747C26.7978 71.278 25.6995 71.2701 24.6006 71.2594C23.9858 71.2577 23.371 71.2561 22.7376 71.2544C20.845 70.9834 19.9429 70.4955 18.5548 69.1931C18.2788 67.7267 18.1633 66.5665 18.1661 65.1004C18.1481 64.5568 18.1481 64.5568 18.1297 64.0022C18.0815 61.6297 18.2258 59.4074 18.9207 57.1209C20.713 55.5041 22.2092 55.4758 24.5664 55.4791C25.0835 55.4769 25.0835 55.4769 25.6109 55.4746C26.7644 55.4713 27.9176 55.4785 29.0711 55.4856C29.8986 55.4854 30.7261 55.4846 31.5536 55.4832C33.7999 55.4812 36.046 55.4883 38.2923 55.4971C40.6411 55.5049 42.99 55.5047 45.3389 55.5054C49.2824 55.5078 53.2258 55.5156 57.1692 55.5271C62.2353 55.5418 67.3014 55.5482 72.3675 55.5517C76.7187 55.5547 81.0698 55.561 85.421 55.5682C86.822 55.5704 88.223 55.5723 89.624 55.5741C91.8222 55.5774 94.0205 55.5826 96.2187 55.5894C97.027 55.5916 97.8353 55.5933 98.6436 55.5942C99.7437 55.5957 100.844 55.5994 101.944 55.6037C102.56 55.6053 103.177 55.6068 103.812 55.6084C106.142 55.6877 106.725 56.1826 107.816 58.2183Z" fill="#FC6E29"/>
<path d="M101.468 39.6999C101.631 40.0164 101.794 40.3328 101.963 40.6589C102.291 41.2488 102.618 41.8388 102.956 42.4466C103.224 43.0261 103.493 43.6057 103.769 44.2028C104.044 44.7852 104.319 45.3676 104.602 45.9676C105.68 48.6764 105.68 48.6764 105.621 50.1703C104.458 51.6732 103.797 52.298 101.905 52.6415C101.022 52.6427 101.022 52.6427 100.122 52.644C99.4446 52.6502 98.7676 52.6564 98.07 52.6627C97.3213 52.6585 96.5726 52.654 95.8239 52.6493C95.0342 52.6523 94.2446 52.6562 93.4549 52.6609C91.3113 52.6709 89.168 52.6671 87.0244 52.6601C84.7815 52.6546 82.5386 52.6597 80.2957 52.6631C76.529 52.6671 72.7624 52.6619 68.9958 52.6514C64.6406 52.6395 60.2857 52.6433 55.9305 52.6554C52.1917 52.6654 48.453 52.6668 44.7142 52.6611C42.481 52.6576 40.2478 52.6572 38.0146 52.6644C35.915 52.6708 33.8158 52.6664 31.7162 52.6537C30.9456 52.6508 30.1748 52.6516 29.4042 52.6565C28.3526 52.6625 27.3009 52.6536 26.2494 52.644C25.6607 52.6432 25.0721 52.6423 24.4656 52.6415C22.5771 52.2985 21.9187 51.6628 20.7498 50.1703C20.3996 46.1394 23.6476 40.995 26.1078 38.0282C27.6218 36.7602 28.3472 36.7223 30.301 36.7121C30.9031 36.7038 31.5052 36.6955 32.1255 36.6869C32.7835 36.689 33.4415 36.6912 34.1194 36.6934C34.8214 36.688 35.5234 36.6817 36.2254 36.6746C38.1301 36.6584 40.0347 36.6562 41.9395 36.6576C43.5304 36.6577 45.1213 36.6514 46.7123 36.6453C50.4661 36.6313 54.2199 36.6292 57.9737 36.6341C61.8445 36.639 65.7147 36.6222 69.5853 36.5951C72.9102 36.5726 76.2351 36.5643 79.5601 36.5672C81.5453 36.5687 83.53 36.5647 85.5151 36.5468C87.3824 36.5305 89.2489 36.5318 91.1163 36.5467C92.1263 36.5504 93.1363 36.536 94.1463 36.5211C97.5631 36.5675 99.5675 36.68 101.468 39.6999Z" fill="#FD4E26"/>
<path d="M105.621 76.5097C105.439 79.347 104.304 81.6563 102.992 84.1234C102.825 84.458 102.657 84.7925 102.485 85.1373C101.374 87.2566 100.359 88.4712 98.3046 89.6793C96.9007 89.9105 96.9007 89.9105 95.3498 89.9141C94.7596 89.9198 94.1693 89.9254 93.5611 89.9313C92.9181 89.9282 92.2751 89.9251 91.6127 89.9218C90.9319 89.9256 90.2512 89.9294 89.5498 89.9333C87.6859 89.9432 85.8221 89.9415 83.9582 89.9371C82.4009 89.9345 80.8436 89.9376 79.2863 89.9407C75.6119 89.948 71.9375 89.946 68.2631 89.9379C64.475 89.9297 60.6872 89.9362 56.8991 89.95C53.644 89.9614 50.389 89.9643 47.1339 89.9602C45.191 89.9579 43.2482 89.9586 41.3053 89.9673C39.1386 89.9765 36.9723 89.9679 34.8055 89.9575C33.8422 89.9651 33.8422 89.9651 32.8594 89.9728C28.0183 89.9264 28.0183 89.9264 26.2277 88.6282C25.2313 87.5807 24.5293 86.7175 23.8936 85.4266C23.6107 84.8579 23.6107 84.8579 23.322 84.2777C23.1371 83.8872 22.9523 83.4968 22.7618 83.0945C22.5657 82.704 22.3695 82.3136 22.1674 81.9113C20.432 78.352 20.432 78.352 20.7498 76.5097C21.922 75.0176 22.5751 74.3818 24.4656 74.0385C25.0542 74.0377 25.6428 74.0368 26.2493 74.036C27.2649 74.0267 27.2649 74.0267 28.3009 74.0172C29.0496 74.0215 29.7983 74.026 30.547 74.0307C31.3367 74.0277 32.1264 74.0238 32.916 74.019C35.0596 74.009 37.203 74.0129 39.3465 74.0199C41.5895 74.0254 43.8324 74.0203 46.0753 74.0168C49.8419 74.0128 53.6085 74.0181 57.3751 74.0285C61.7303 74.0405 66.0853 74.0366 70.4405 74.0245C74.1792 74.0146 77.918 74.0132 81.6567 74.0189C83.89 74.0223 86.1231 74.0228 88.3563 74.0155C90.4559 74.0092 92.5552 74.0136 94.6547 74.0263C95.4254 74.0292 96.1961 74.0284 96.9668 74.0235C98.0184 74.0175 99.07 74.0264 100.122 74.036C100.71 74.0368 101.299 74.0376 101.905 74.0385C103.807 74.3838 104.478 74.9738 105.621 76.5097Z" fill="#FD8A2B"/>
<path d="M92.7715 30.8274C92.2595 32.5097 91.4255 32.8732 89.8907 33.7082C88.1471 33.9787 86.4205 33.9581 84.6589 33.9449C84.1334 33.9481 83.6079 33.9513 83.0664 33.9546C81.3313 33.9627 79.5965 33.9573 77.8613 33.9512C76.6555 33.9524 75.4496 33.9542 74.2438 33.9565C71.7178 33.9592 69.192 33.9552 66.666 33.9467C63.4252 33.9363 60.1847 33.9423 56.9439 33.9532C54.4546 33.9598 51.9654 33.9577 49.4761 33.953C48.2809 33.9518 47.0858 33.9533 45.8906 33.9575C44.2222 33.9622 42.5541 33.9551 40.8857 33.9449C40.39 33.9486 39.8944 33.9523 39.3837 33.9561C36.0441 33.9182 36.0441 33.9182 34.5316 32.8432C33.9195 31.8791 33.9195 31.8791 33.6223 30.8502C34.3914 27.8327 37.449 26.2936 39.9327 24.7684C46.0474 21.2626 52.4818 19.1213 59.5272 18.7094C59.9941 18.6302 60.4609 18.551 60.9419 18.4694C61.3201 18.4279 61.6983 18.3864 62.088 18.3436C62.3294 18.585 62.5709 18.8265 62.8196 19.0753C63.104 18.9484 63.3884 18.8215 63.6813 18.6909C70.5169 16.9105 79.8477 21.0728 85.6906 24.4077C92.0285 28.1736 92.0285 28.1736 92.7715 30.8274Z" fill="#FC2823"/>
<path d="M91.7199 93.7492C92.5936 95.0051 92.6583 95.4963 92.4516 96.9959C87.3731 103.17 77.3699 106.713 69.6104 107.765C68.6888 107.841 67.7666 107.91 66.8438 107.971C66.3803 108.027 65.9167 108.083 65.4391 108.141C54.7297 109.229 43.9591 105.394 35.5558 98.835C34.5509 97.9296 33.9741 97.1739 33.5767 95.8756C34.1777 93.9924 35.1149 93.5046 36.8462 92.606C37.8589 92.5932 37.8589 92.5932 39.0556 92.7281C41.7354 92.9578 44.3868 93.0127 47.0742 93.0134C47.5156 93.0136 47.957 93.0138 48.4118 93.014C49.8377 93.0133 51.2636 93.0104 52.6896 93.0076C53.6918 93.0069 54.6939 93.0064 55.6961 93.006C58.3201 93.0046 60.9441 93.001 63.568 92.997C66.2392 92.9932 68.9105 92.9915 71.5817 92.9897C75.8925 92.9865 80.2032 92.982 84.5139 92.9759C85.5746 92.9744 86.6352 92.9731 87.6958 92.9718C88.5226 92.9476 88.5226 92.9476 89.3661 92.9229C90.6224 92.9718 90.6224 92.9718 91.7199 93.7492Z" fill="#FDAA2A"/>
<path d="M80.745 37.0006C80.2573 37.4884 79.7695 37.9762 79.2817 38.4639C79.5232 38.7054 79.7646 38.9468 80.0134 39.1956C79.6512 39.5577 79.289 39.9199 78.9159 40.2931C77.9501 39.8102 76.9843 39.3273 75.9893 38.8298C75.7479 39.0712 75.5064 39.3126 75.2576 39.5614C74.2919 38.8371 73.3261 38.1127 72.3311 37.3665C75.1454 37.1194 77.9196 36.9585 80.745 37.0006Z" fill="#FA5531"/>
<path d="M53.6741 37.0006C53.6741 37.7249 53.6741 38.4493 53.6741 39.1955C53.4326 38.9541 53.1912 38.7127 52.9424 38.4639C52.535 38.7129 52.535 38.7129 52.1193 38.9669C51.3149 39.4422 50.4856 39.8752 49.65 40.293C49.1671 39.8101 48.6842 39.3272 48.1867 38.8297C48.4281 38.5883 48.6696 38.3468 48.9183 38.0981C48.7976 37.7359 48.6769 37.3737 48.5525 37.0006C50.2426 37.0006 51.9327 37.0006 53.6741 37.0006Z" fill="#FB552F"/>
<path d="M93.9147 69.1932C94.1562 69.6761 94.3976 70.159 94.6464 70.6565C89.659 71.144 89.659 71.144 87.3299 70.6565C87.5713 70.415 87.8128 70.1736 88.0615 69.9248C87.9408 69.5627 87.8201 69.2005 87.6957 68.8274C88.7475 68.7816 88.7475 68.7816 89.8907 68.8274C90.1321 69.0688 90.3736 69.3102 90.6223 69.559C90.8638 69.3176 91.1052 69.0761 91.354 68.8274C92.6343 68.8731 92.6343 68.8731 93.9147 69.1932Z" fill="#F97733"/>
<path d="M69.0388 37.0006C68.551 37.4884 68.0633 37.9761 67.5755 38.4639C67.6962 38.8261 67.8169 39.1882 67.9413 39.5614C66.7296 39.841 65.5089 40.0837 64.2831 40.293C64.0416 40.0516 63.8002 39.8101 63.5514 39.5614C63.7929 39.0785 64.0343 38.5956 64.2831 38.0981C64.1624 37.7359 64.0416 37.3737 63.9173 37.0006C65.6074 37.0006 67.2975 37.0006 69.0388 37.0006Z" fill="#FC5531"/>
<path d="M101.39 39.68C101.963 40.6589 101.963 40.6589 102.329 42.488C100.34 41.2497 99.4156 40.3335 98.6705 38.0981C98.1876 38.3396 97.7047 38.581 97.2072 38.8298C96.845 38.2262 96.4828 37.6226 96.1097 37.0007C98.9539 36.4928 99.788 37.5641 101.39 39.68Z" fill="#FA5B3A"/>
<path d="M41.9675 37.0006C41.7261 37.7249 41.4846 38.4493 41.2359 39.1955C40.3304 39.3766 40.3304 39.3766 39.4067 39.5614C39.0446 39.1992 38.6824 38.837 38.3093 38.4639C37.9471 38.5846 37.5849 38.7053 37.2118 38.8297C37.0911 38.2261 36.9703 37.6225 36.846 37.0006C38.5361 37.0006 40.2262 37.0006 41.9675 37.0006Z" fill="#F9562E"/>
<path d="M90.6222 92.9717C91.7062 93.8931 92.3736 94.4686 92.7028 95.8754C92.3473 97.459 91.4534 98.1433 90.2564 99.1907C89.6848 98.3447 89.6848 98.3447 89.1589 97.3616C89.5247 96.2641 89.5247 96.2641 90.2564 94.8008C90.4978 95.0423 90.7392 95.2837 90.988 95.5325C91.2295 95.291 91.4709 95.0496 91.7197 94.8008C91.3575 94.1972 90.9953 93.5936 90.6222 92.9717Z" fill="#FBB33F"/>
<path d="M81.8423 68.0956C82.3856 69.3632 82.3856 69.3632 82.9398 70.6564C81.3704 70.7771 79.801 70.8979 78.1841 71.0222C78.3048 70.4186 78.4255 69.815 78.5499 69.1931C78.7914 69.4346 79.0328 69.676 79.2816 69.9248C80.1266 69.3212 80.9717 68.7175 81.8423 68.0956Z" fill="#F87533"/>
<path d="M23.3104 70.2907C22.373 70.7708 22.373 70.7708 21.1155 71.0223C19.6979 70.1535 19.6979 70.1535 18.5547 69.1932C19.7208 68.5759 19.7208 68.5759 21.1155 68.0957C22.479 68.6293 22.8435 68.8899 23.3104 70.2907Z" fill="#F97737"/>
<path d="M68.307 67.7298C69.152 68.5749 69.9971 69.4199 70.8678 70.2906C69.1262 71.0127 67.954 71.0248 66.112 70.6564C66.5922 69.3989 66.5922 69.3989 67.2095 68.0957C67.5717 67.9749 67.9338 67.8542 68.307 67.7298Z" fill="#F87533"/>
<path d="M20.0181 56.0236C19.8973 56.3857 19.7766 56.7479 19.6522 57.121C19.8937 57.6039 20.1351 58.0868 20.3839 58.5843C20.1424 58.8258 19.901 59.0672 19.6522 59.316C19.8937 59.7989 20.1351 60.2818 20.3839 60.7793C19.7803 61.3829 19.1767 61.9865 18.5548 62.6084C18.5293 60.6968 18.5446 59.0011 18.9206 57.121C19.2828 56.7589 19.6449 56.3967 20.0181 56.0236Z" fill="#FB7637"/>
<path d="M76.355 69.1931C76.5964 69.676 76.8378 70.1589 77.0866 70.6564C75.5172 70.7771 73.9478 70.8978 72.3309 71.0222C73.0625 69.5589 73.0625 69.5589 74.1371 69.0788C75.2575 68.8273 75.2575 68.8273 76.355 69.1931Z" fill="#F87735"/>
<path d="M54.7715 55.6576C54.6507 56.0197 54.53 56.3819 54.4056 56.755C53.0567 57.2809 53.0567 57.2809 51.479 57.4867C50.1987 56.8008 50.1987 56.8008 49.2841 56.0234C50.0614 55.9621 50.8388 55.9012 51.6162 55.8405C52.0491 55.8065 52.482 55.7726 52.9281 55.7376C53.5415 55.6934 54.1564 55.6576 54.7715 55.6576Z" fill="#FB7334"/>
<path d="M47.8208 37.0006C47.5235 38.0752 47.5235 38.0752 47.0891 39.1955C46.727 39.3163 46.3648 39.437 45.9917 39.5614C45.5088 39.0785 45.0259 38.5956 44.5284 38.0981C43.382 37.6343 43.382 37.6343 42.3334 37.3664C43.1108 37.3051 43.8881 37.2442 44.6655 37.1835C45.0984 37.1496 45.5313 37.1156 45.9774 37.0806C46.5908 37.0365 47.2057 37.0006 47.8208 37.0006Z" fill="#F95936"/>
<path d="M104.889 78.7045C104.889 80.3712 104.565 81.2617 103.792 82.7286C102.809 83.4374 102.809 83.4374 101.963 83.8261C102.325 83.4639 102.687 83.1017 103.06 82.7286C102.698 82.3664 102.336 82.0043 101.963 81.6311C103.655 79.1161 103.655 79.1161 104.889 78.7045Z" fill="#FB9038"/>
<path d="M63.1855 37.0007C63.1855 38.464 63.1855 38.464 62.088 39.5614C61.0015 39.1993 61.0015 39.1993 59.893 38.8298C60.0138 38.2262 60.1345 37.6226 60.2589 37.0007C61.2246 37.0007 62.1904 37.0007 63.1855 37.0007Z" fill="#F95831"/>
<path d="M99.0363 69.1932C99.3985 69.5553 99.7606 69.9175 100.134 70.2906C98.3923 71.0127 97.22 71.0248 95.3781 70.6565C95.6195 70.1736 95.8609 69.6907 96.1097 69.1932C96.3511 69.4346 96.5926 69.676 96.8413 69.9248C97.5657 69.6834 98.29 69.4419 99.0363 69.1932Z" fill="#F77836"/>
<path d="M104.524 47.6095C105.621 49.3472 105.621 49.3472 105.621 50.1703C104.638 51.3363 104.638 51.3363 103.426 52.3652C102.521 52.1841 102.521 52.1841 101.597 51.9994C101.959 51.6372 102.321 51.2751 102.695 50.9019C102.936 51.1434 103.177 51.3848 103.426 51.6336C104.089 50.0126 104.089 50.0126 103.792 48.3411C104.033 48.0997 104.275 47.8583 104.524 47.6095Z" fill="#F85432"/>
<path d="M85.8666 68.4615C86.2287 69.0651 86.5909 69.6687 86.964 70.2907C86.2397 70.5321 85.5154 70.7735 84.7691 71.0223C84.4069 70.6601 84.0448 70.298 83.6716 69.9248C84.7691 68.8274 84.7691 68.8274 85.8666 68.4615Z" fill="#F87631"/>
<path d="M64.6487 69.1932C64.8902 69.4346 65.1316 69.6761 65.3804 69.9248C64.1791 70.8349 63.6932 71.0339 62.1566 70.908C61.7718 70.825 61.387 70.742 60.9905 70.6565C63.0025 69.1932 63.0025 69.1932 64.6487 69.1932Z" fill="#F77734"/>
<path d="M106.353 56.0235C107.222 57.121 107.222 57.121 107.816 58.2184C106.81 58.3556 106.81 58.3556 105.621 58.2184C104.752 57.121 104.752 57.121 104.158 56.0235C105.164 55.8863 105.164 55.8863 106.353 56.0235Z" fill="#FC7940"/>
<path d="M52.5766 68.8274C52.9388 69.431 53.301 70.0346 53.6741 70.6565C52.4669 70.6565 51.2597 70.6565 50.0158 70.6565C50.378 70.0529 50.7402 69.4493 51.1133 68.8274C51.3548 69.0688 51.5962 69.3102 51.845 69.559C52.0864 69.3176 52.3279 69.0761 52.5766 68.8274Z" fill="#F77634"/>
<path d="M46.7233 55.6576C46.0831 57.7611 46.0831 57.7611 45.26 58.5842C45.0186 58.3428 44.7771 58.1013 44.5284 57.8526C44.7698 57.6111 45.0112 57.3697 45.26 57.1209C44.6564 56.7588 44.0528 56.3966 43.4309 56.0235C44.5174 55.9027 45.6039 55.782 46.7233 55.6576Z" fill="#F97431"/>
<path d="M64.2829 55.6576C63.5512 57.1209 63.5512 57.1209 62.4538 58.2184C61.9709 57.4941 61.488 56.7697 60.9905 56.0235C62.077 55.9027 63.1635 55.782 64.2829 55.6576Z" fill="#FA7431"/>
<path d="M153.236 70.1872V98H139.894V33.8552H152.861V58.3793H153.424C154.51 55.5396 156.264 53.3158 158.686 51.708C161.108 50.0793 164.147 49.265 167.801 49.265C171.141 49.265 174.054 49.9958 176.539 51.4574C179.045 52.8982 180.987 54.9758 182.365 57.6903C183.764 60.3838 184.453 63.6099 184.432 67.3684V98H171.089V69.7487C171.11 66.7837 170.358 64.4764 168.834 62.8269C167.331 61.1773 165.222 60.3525 162.507 60.3525C160.691 60.3525 159.083 60.7388 157.684 61.5114C156.306 62.284 155.22 63.4115 154.427 64.894C153.654 66.3557 153.257 68.1201 153.236 70.1872ZM216.857 98.9396C211.908 98.9396 207.648 97.9374 204.078 95.9328C200.528 93.9074 197.793 91.0468 195.872 87.351C193.951 83.6342 192.99 79.2389 192.99 74.1649C192.99 69.2163 193.951 64.8731 195.872 61.1355C197.793 57.3979 200.497 54.4851 203.984 52.3971C207.492 50.309 211.605 49.265 216.324 49.265C219.498 49.265 222.453 49.7766 225.188 50.7997C227.944 51.802 230.345 53.3158 232.392 55.3412C234.459 57.3666 236.067 59.914 237.215 62.9835C238.364 66.032 238.938 69.6026 238.938 73.6951V77.3597H198.315V69.091H226.378C226.378 67.17 225.961 65.4682 225.125 63.9857C224.29 62.5032 223.131 61.3443 221.649 60.5091C220.187 59.653 218.485 59.225 216.543 59.225C214.518 59.225 212.722 59.6948 211.156 60.6344C209.611 61.5531 208.4 62.7955 207.523 64.3616C206.646 65.9067 206.197 67.6294 206.176 69.5295V77.391C206.176 79.7714 206.615 81.8281 207.492 83.5612C208.39 85.2942 209.653 86.6306 211.282 87.5702C212.91 88.5098 214.842 88.9796 217.076 88.9796C218.558 88.9796 219.916 88.7708 221.148 88.3532C222.38 87.9356 223.434 87.3092 224.311 86.474C225.188 85.6388 225.856 84.6156 226.315 83.4046L238.656 84.2189C238.029 87.1839 236.745 89.7731 234.803 91.9864C232.882 94.1789 230.398 95.8911 227.349 97.123C224.321 98.3341 220.824 98.9396 216.857 98.9396ZM260.988 33.8552V98H247.645V33.8552H260.988ZM271.676 98V49.8914H285.018V98H271.676ZM278.378 43.6899C276.395 43.6899 274.693 43.0322 273.273 41.7167C271.874 40.3804 271.175 38.783 271.175 36.9246C271.175 35.0872 271.874 33.5107 273.273 32.1952C274.693 30.8589 276.395 30.1907 278.378 30.1907C280.362 30.1907 282.053 30.8589 283.452 32.1952C284.872 33.5107 285.582 35.0872 285.582 36.9246C285.582 38.783 284.872 40.3804 283.452 41.7167C282.053 43.0322 280.362 43.6899 278.378 43.6899ZM317.443 98.9396C312.578 98.9396 308.371 97.906 304.821 95.8389C301.292 93.7508 298.567 90.8484 296.646 87.1317C294.725 83.3941 293.765 79.0614 293.765 74.1336C293.765 69.1641 294.725 64.8209 296.646 61.1042C298.567 57.3666 301.292 54.4642 304.821 52.3971C308.371 50.309 312.578 49.265 317.443 49.265C322.308 49.265 326.505 50.309 330.034 52.3971C333.584 54.4642 336.319 57.3666 338.24 61.1042C340.161 64.8209 341.122 69.1641 341.122 74.1336C341.122 79.0614 340.161 83.3941 338.24 87.1317C336.319 90.8484 333.584 93.7508 330.034 95.8389C326.505 97.906 322.308 98.9396 317.443 98.9396ZM317.506 88.6038C319.719 88.6038 321.567 87.9774 323.049 86.7245C324.532 85.4508 325.649 83.7178 326.401 81.5253C327.173 79.3329 327.56 76.8376 327.56 74.0397C327.56 71.2417 327.173 68.7465 326.401 66.554C325.649 64.3616 324.532 62.6285 323.049 61.3548C321.567 60.0811 319.719 59.4442 317.506 59.4442C315.272 59.4442 313.392 60.0811 311.868 61.3548C310.365 62.6285 309.227 64.3616 308.454 66.554C307.702 68.7465 307.326 71.2417 307.326 74.0397C307.326 76.8376 307.702 79.3329 308.454 81.5253C309.227 83.7178 310.365 85.4508 311.868 86.7245C313.392 87.9774 315.272 88.6038 317.506 88.6038ZM389.825 63.6099L377.61 64.3616C377.401 63.3175 376.952 62.3779 376.263 61.5427C375.574 60.6866 374.666 60.008 373.538 59.5069C372.432 58.9848 371.106 58.7238 369.561 58.7238C367.494 58.7238 365.75 59.1623 364.33 60.0393C362.91 60.8954 362.2 62.0438 362.2 63.4846C362.2 64.633 362.66 65.604 363.578 66.3974C364.497 67.1909 366.074 67.8277 368.308 68.308L377.015 70.0619C381.692 71.0224 385.179 72.5676 387.476 74.6974C389.773 76.8272 390.921 79.6252 390.921 83.0913C390.921 86.2443 389.992 89.011 388.134 91.3913C386.296 93.7717 383.77 95.6301 380.554 96.9664C377.36 98.2819 373.674 98.9396 369.498 98.9396C363.13 98.9396 358.056 97.6137 354.276 94.9619C350.518 92.2892 348.315 88.656 347.668 84.0623L360.791 83.3732C361.188 85.3151 362.148 86.7976 363.672 87.8208C365.197 88.823 367.149 89.3242 369.529 89.3242C371.868 89.3242 373.747 88.8752 375.167 87.9774C376.608 87.0586 377.339 85.8789 377.36 84.4381C377.339 83.2271 376.827 82.2352 375.825 81.4627C374.823 80.6692 373.277 80.0637 371.189 79.6461L362.858 77.9861C358.16 77.0465 354.663 75.4178 352.366 73.1C350.09 70.7823 348.952 67.8277 348.952 64.2363C348.952 61.146 349.787 58.4837 351.457 56.2495C353.149 54.0153 355.519 52.2927 358.567 51.0816C361.637 49.8705 365.228 49.265 369.341 49.265C375.418 49.265 380.199 50.5491 383.686 53.1174C387.194 55.6857 389.241 59.1832 389.825 63.6099Z" fill="black"/>
</svg>
